<?xml version="1.0" encoding="utf-8"?>
<!-- Generator: Adobe Illustrator 19.0.0, SVG Export Plug-In . SVG Version: 6.00 Build 0)  -->
<svg version="1.1" id="Layer_1" xmlns="http://www.w3.org/2000/svg" xmlns:xlink="http://www.w3.org/1999/xlink" x="0px" y="0px"
	 viewBox="-33.5 306.9 325.7 180" style="enable-background:new -33.5 306.9 325.7 180;" xml:space="preserve">
<style type="text/css">
	.st0{fill:url(#SVGID_1_);}
	.st1{fill:url(#SVGID_2_);}
	.st2{fill:url(#SVGID_3_);}
	.st3{fill:url(#SVGID_4_);}
	.st4{fill:url(#SVGID_5_);}
	.st5{fill:url(#SVGID_6_);}
	.st6{fill:url(#SVGID_7_);}
	.st7{opacity:0.3;enable-background:new    ;}
	.st8{fill:url(#SVGID_8_);}
	.st9{fill:url(#SVGID_9_);}
	.st10{fill:url(#SVGID_10_);}
	.st11{fill:url(#SVGID_11_);}
	.st12{fill:#FFFFFF;}
</style>
<g>
	<g>
		<g>
			
				<radialGradient id="SVGID_1_" cx="28.1086" cy="416.0587" r="62.9242" gradientTransform="matrix(1 0 0 1 0 3.4)" gradientUnits="userSpaceOnUse">
				<stop  offset="0" style="stop-color:#FFFFFF"/>
				<stop  offset="0.28" style="stop-color:#E1E331"/>
				<stop  offset="0.8" style="stop-color:#399948"/>
			</radialGradient>
			<path class="st0" d="M2.1,465.4c-4.4,1.8-8.3,3.2-11.6,4.2c-0.8-1.4-2.2-2.3-3.8-2.3c-2.4,0-4.4,2-4.4,4.4s2,4.4,4.4,4.4
				c2.3,0,4.1-1.7,4.4-4c4.2-0.9,9.2-2.4,15-4.4c7.9-2.7,17.3-6.3,27.7-10.8c-8.7,5.1-16.5,9.4-23.4,12.9c5.6,2.3,11.8,3.6,18.3,3.6
				c24.7,0,44.9-18.7,47.5-42.7c-1.5-0.1-2.9-0.5-4.1-1.1C43.3,446.3,19.1,458.6,2.1,465.4z M-13.4,473.6c-1.1,0-2-0.9-2-2
				s0.9-2,2-2s2,0.9,2,2S-12.3,473.6-13.4,473.6z"/>
			
				<linearGradient id="SVGID_2_" gradientUnits="userSpaceOnUse" x1="64.6788" y1="476.485" x2="42.5069" y2="444.191" gradientTransform="matrix(1 0 0 1 0 3.4)">
				<stop  offset="0" style="stop-color:#FFFFFF"/>
				<stop  offset="1" style="stop-color:#FFFFFF;stop-opacity:0"/>
			</linearGradient>
			<path class="st1" d="M18.2,468.8c3.4,0.8,6.8,1.2,10.4,1.2c21.6,0,39.6-15.4,43.6-35.9C64.3,455.8,37.3,470.5,18.2,468.8z"/>
		</g>
		<g>
			
				<radialGradient id="SVGID_3_" cx="85.7854" cy="364.9679" r="34.2752" gradientTransform="matrix(1 0 0 1 0 3.4)" gradientUnits="userSpaceOnUse">
				<stop  offset="0" style="stop-color:#FFFFFF"/>
				<stop  offset="0.5" style="stop-color:#FAAF3B"/>
				<stop  offset="1" style="stop-color:#C3272E"/>
			</radialGradient>
			<path class="st2" d="M69.7,380.8c-1.2,2.6-3.8,6.1-8,10.5c2.1,2,4,4.2,5.7,6.6C80.9,384,81,378.3,69.7,380.8z"/>
			
				<radialGradient id="SVGID_4_" cx="-40.4946" cy="464.2572" r="37.7484" gradientTransform="matrix(1 0 0 1 0 3.4)" gradientUnits="userSpaceOnUse">
				<stop  offset="0" style="stop-color:#FFFFFF"/>
				<stop  offset="0.5" style="stop-color:#FAAF3B"/>
				<stop  offset="1" style="stop-color:#C3272E"/>
			</radialGradient>
			<path class="st3" d="M-17.2,459.3c1.1-1.8,3.1-4.1,6.1-7c-1.4-2.1-2.7-4.4-3.7-6.7C-28,457.6-27.3,461.5-17.2,459.3z"/>
			
				<radialGradient id="SVGID_5_" cx="32.1238" cy="330.265" r="169.1157" gradientTransform="matrix(1 0 0 1 0 3.4)" gradientUnits="userSpaceOnUse">
				<stop  offset="0" style="stop-color:#FFFFFF"/>
				<stop  offset="0.5" style="stop-color:#FAAF3B"/>
				<stop  offset="1" style="stop-color:#C3272E"/>
			</radialGradient>
			<path class="st4" d="M68.3,399.2c2.7,4.1,4.8,8.6,6.2,13.4c-4.1,0.9-7.3,4.5-7.3,8.8C36.6,439.3,11,452.1-6,458.6
				c-4-4.2-7.3-9.1-9.5-14.5c-2.5-6-3.7-12.4-3.7-19c5.5,0.8,10.3-3.4,10.4-8.9c25.5-14.9,46.2-25.6,61.3-31.9
				C58.8,388,64.2,393.1,68.3,399.2z M-17.9,412c-2.3,0-4.1,1.8-4.1,4.1s1.8,4.1,4.1,4.1s4.1-1.8,4.1-4.1
				C-13.9,413.9-15.7,412-17.9,412z M76.2,417.5c-2.3,0-4.1,1.8-4.1,4.1s1.8,4.1,4.1,4.1c2.3,0,4.1-1.8,4.1-4.1
				C80.3,419.3,78.5,417.5,76.2,417.5z"/>
			
				<linearGradient id="SVGID_6_" gradientUnits="userSpaceOnUse" x1="122.577" y1="418.2534" x2="44.4899" y2="418.2534" gradientTransform="matrix(1 0 0 1 0 3.4)">
				<stop  offset="0" style="stop-color:#FFFFFF"/>
				<stop  offset="1" style="stop-color:#FFFFFF;stop-opacity:0"/>
			</linearGradient>
			<path class="st5" d="M48.6,386c-14.7,6.4-34.1,16.5-57.4,30.2c-0.1,4.4-3.1,7.9-7,8.8c-0.2,12.2,4.6,23.7,13.3,32.3
				c17-6.8,41.2-19.1,69.8-35.8c0-3.2,1.7-6,4.2-7.6C68,401.7,59.7,391.6,48.6,386z"/>
			
				<linearGradient id="SVGID_7_" gradientUnits="userSpaceOnUse" x1="-64.4331" y1="418.2534" x2="10.8941" y2="418.2534" gradientTransform="matrix(1 0 0 1 0 3.4)">
				<stop  offset="0" style="stop-color:#FFFFFF"/>
				<stop  offset="1" style="stop-color:#FFFFFF;stop-opacity:0"/>
			</linearGradient>
			<path class="st6" d="M48.6,386c-14.7,6.4-34.1,16.5-57.4,30.2c-0.1,4.4-3.1,7.9-7,8.8c-0.2,12.2,4.6,23.7,13.3,32.3
				c17-6.8,41.2-19.1,69.8-35.8c0-3.2,1.7-6,4.2-7.6C68,401.7,59.7,391.6,48.6,386z"/>
			<path class="st7" d="M63.4,418.3c-30.2,17.9-56.1,25.9-78.3,27.3c1.8,4,4.1,7.7,7,10.9c16.2-5.9,42.7-19,73.3-37
				c0.4-4.5,4.1-8.1,8.7-8.4c-0.1-0.3-0.2-0.6-0.3-1C68.7,409.5,64,413.2,63.4,418.3z"/>
			<path class="st7" d="M54.8,385.8c-14.5,6-35.7,17-62.4,32.7c-0.4,4.7-4.3,8.3-9.1,8.3c-0.9,0-1.7-0.2-2.5-0.3c0,0.2,0,0.5,0,0.7
				c1.1,0.5,2.3,0.8,3.7,0.8c4.6,0,8.4-3.4,9-7.8c26.6-14.8,56.6-26.9,73.9-22.2C64,393.1,59.8,389,54.8,385.8z"/>
			
				<radialGradient id="SVGID_8_" cx="32.2717" cy="401.6915" r="40.9709" gradientTransform="matrix(1 0 0 1 0 3.4)" gradientUnits="userSpaceOnUse">
				<stop  offset="0" style="stop-color:#FFFFFF"/>
				<stop  offset="0.5" style="stop-color:#FAAF3B"/>
				<stop  offset="1" style="stop-color:#C3272E"/>
			</radialGradient>
			<path class="st8" d="M-8.8,416.1c-0.1,5-4.1,9.1-9.1,9.1c-2.5,0-4.8-1-6.5-2.7c1.6,2.5,4.5,4.2,7.7,4.2c4.8,0,8.7-3.7,9.1-8.3
				c72.3-42.3,103.6-50,75-20.5c0.3,0.4,0.6,0.9,0.9,1.2C100.8,365.3,66.8,371.9-8.8,416.1z"/>
			
				<radialGradient id="SVGID_9_" cx="24.014" cy="430.3982" r="42.8002" gradientTransform="matrix(1 0 0 1 0 3.4)" gradientUnits="userSpaceOnUse">
				<stop  offset="0" style="stop-color:#FFFFFF"/>
				<stop  offset="0.5" style="stop-color:#FAAF3B"/>
				<stop  offset="1" style="stop-color:#C3272E"/>
			</radialGradient>
			<path class="st9" d="M65.4,419.6c-64.9,38-111.2,54.4-80.2,26c-0.2-0.5-0.5-1-0.6-1.5c-37,34.1,8.2,21,82.7-22.6
				c0.1-5,4.1-9.1,9.1-9.1c1.6,0,3,0.4,4.3,1.1c-1.6-1.4-3.7-2.3-6.1-2.3C69.7,411.2,65.8,414.9,65.4,419.6z"/>
		</g>
		<g>
			
				<radialGradient id="SVGID_10_" cx="30.0358" cy="230.0125" r="253.0421" gradientTransform="matrix(1 0 0 1 0 3.4)" gradientUnits="userSpaceOnUse">
				<stop  offset="0" style="stop-color:#FFFFFF"/>
				<stop  offset="0.5" style="stop-color:#24B2E7"/>
				<stop  offset="1" style="stop-color:#3D4199"/>
			</radialGradient>
			<path class="st10" d="M65.9,364.8c-2.2,0-4,1.6-4.4,3.7c-4.8,0.9-11.3,2.8-19.5,6c-4.1,1.6-8.5,3.4-13.4,5.6
				c4.8-3,9.4-5.5,13.4-7.8v-37.5c4.3-1.8,7-4.5,7-7.4c0-5.4-9.2-9.8-20.5-9.8S8,322,8,327.5c0,3,2.7,5.6,7,7.4
				c3,1.2,6.8,2.1,11,2.3c-3.7,0.8-7.3,0.7-11-0.2v42.8c-13.8,4.1-25.1,14.3-30.6,27.5c0.7,0.2,1.4,0.5,2,0.8
				c22.4-13.1,41.1-23,55.5-29.4c8-3.6,14.7-6.1,19.9-7.6c0.7,1.4,2.2,2.4,3.9,2.4c2.4,0,4.4-2,4.4-4.4
				C70.2,366.8,68.3,364.8,65.9,364.8z M16.1,324.9c0-3,5.5-5.4,12.4-5.4s12.4,2.4,12.4,5.4s-5.5,5.4-12.4,5.4
				S16.1,327.9,16.1,324.9z M65.9,371.1c-1.1,0-2-0.9-2-2s0.9-2,2-2s2,0.9,2,2S66.9,371.1,65.9,371.1z"/>
			
				<linearGradient id="SVGID_11_" gradientUnits="userSpaceOnUse" x1="1.1141" y1="373.9061" x2="10.754" y2="389.33" gradientTransform="matrix(1 0 0 1 0 3.4)">
				<stop  offset="0" style="stop-color:#FFFFFF"/>
				<stop  offset="1" style="stop-color:#FFFFFF;stop-opacity:0"/>
			</linearGradient>
			<path class="st11" d="M-11.9,407.1c18.4-10.8,34.3-19.2,47.3-25.4c-2.3-0.4-4.6-0.5-7-0.5C10.6,381.2-4.8,391.9-11.9,407.1z"/>
		</g>
	</g>
	<g>
		<path class="st12" d="M105.8,421.1c-6.3,0-10.1-4.1-8.9-11c1.2-6.8,6.4-10.9,12.8-10.9c6.3,0,10.1,4.1,8.9,10.7
			c-0.1,0.5-0.2,1.2-0.5,1.7h-14.1c-0.2,2.5,0.9,3.5,2.6,3.5c1.5,0,2.4-0.8,3-1.6h8C115.8,417.8,111.2,421.1,105.8,421.1z
			 M104.6,408.3h6.6c0.4-2.1-0.9-3.2-2.7-3.2C106.7,405.1,105.3,406.1,104.6,408.3z"/>
		<path class="st12" d="M130.8,421.1c-6.4,0-10.9-2.8-10.2-8.6h7.9c-0.2,1.7,0.7,2.7,2.5,2.7c1.4,0,2.4-0.6,2.4-1.9
			c0-3.8-11.2-3.1-11.2-10.9c0-5.7,4.5-8.9,10.9-8.9c6.1,0,10.3,3.1,9.7,8.4h-8c0.2-1.6-0.5-2.5-2.1-2.5c-1.3,0-2.3,0.7-2.3,2
			c0,3.7,11.2,3.5,11.2,11.3C141.6,417.5,137.5,421.1,130.8,421.1z"/>
		<path class="st12" d="M157.3,399.2c5.4,0,8.8,3.1,9,8.4h-8c-0.2-1.3-0.9-2.1-2.3-2.1c-1.8,0-3.3,1.6-3.8,4.6
			c-0.5,3.1,0.5,4.6,2.3,4.6c1.5,0,2.4-0.8,3-2.1h8c-2,5.3-6.5,8.4-12,8.4c-6.3,0-10.1-4.1-8.9-11
			C145.7,403.3,150.9,399.2,157.3,399.2z"/>
		<path class="st12" d="M170.8,399.4h7.5l-3.7,21.4h-7.6L170.8,399.4z M171.2,393.6c0.4-2.2,2.3-3.9,5-3.9s4.1,1.7,3.7,3.9
			c-0.4,2.1-2.4,3.8-5,3.8C172.2,397.5,170.8,395.8,171.2,393.6z"/>
		<path class="st12" d="M188.3,421.1c-6.3,0-10.1-4.1-8.9-11c1.2-6.8,6.4-10.9,12.8-10.9c6.3,0,10.1,4.1,8.9,10.7
			c-0.1,0.5-0.2,1.2-0.5,1.7h-14.1c-0.2,2.5,0.9,3.5,2.6,3.5c1.5,0,2.4-0.8,3-1.6h8C198.3,417.8,193.7,421.1,188.3,421.1z
			 M187.1,408.3h6.6c0.4-2.1-0.9-3.2-2.7-3.2C189.2,405.1,187.8,406.1,187.1,408.3z"/>
		<path class="st12" d="M218.8,409.3c0.5-2.5-0.7-3.9-2.9-3.9s-3.7,1.5-4.2,3.7l-2,11.6h-7.5l3.8-21.4h7.5l-0.5,3
			c1.6-1.8,4.1-3.2,7.1-3.2c4.9,0,7.4,3.5,6.4,9.1l-2.2,12.5h-7.5L218.8,409.3z"/>
		<path class="st12" d="M241.8,399.2c5.4,0,8.8,3.1,9,8.4h-8c-0.2-1.3-0.9-2.1-2.3-2.1c-1.8,0-3.3,1.6-3.8,4.6
			c-0.5,3.1,0.5,4.6,2.3,4.6c1.5,0,2.4-0.8,3-2.1h8c-2,5.3-6.5,8.4-12,8.4c-6.3,0-10.1-4.1-8.9-11
			C230.2,403.3,235.5,399.2,241.8,399.2z"/>
		<path class="st12" d="M261.1,421.1c-6.3,0-10.1-4.1-8.9-11c1.2-6.8,6.4-10.9,12.8-10.9c6.3,0,10.1,4.1,8.9,10.7
			c-0.1,0.5-0.2,1.2-0.5,1.7h-14.1c-0.2,2.5,0.9,3.5,2.6,3.5c1.5,0,2.4-0.8,3-1.6h8C271.1,417.8,266.5,421.1,261.1,421.1z
			 M259.9,408.3h6.6c0.4-2.1-0.9-3.2-2.7-3.2C262,405.1,260.5,406.1,259.9,408.3z"/>
	</g>
	<g>
		<path class="st12" d="M115.4,449.5h-10l-1.6,4.8h-6.8l9.7-26.8h7.6l9.7,26.8H117L115.4,449.5z M110.5,434.7l-3.3,9.8h6.6
			L110.5,434.7z"/>
		<path class="st12" d="M136.2,432.6c5.3,0,9.1,3,10.2,8h-7c-0.5-1.5-1.6-2.4-3.4-2.4c-2.3,0-3.9,1.8-3.9,5.4c0,3.5,1.6,5.4,3.9,5.4
			c1.8,0,2.8-0.9,3.4-2.4h7c-1.1,4.9-4.8,8-10.2,8c-6.2,0-10.7-4.2-10.7-10.9C125.5,436.9,130,432.6,136.2,432.6z"/>
		<path class="st12" d="M158,432.6c3.2,0,5.4,1.5,6.6,3.3v-3h6.5v21.2h-6.5v-2.9c-1.2,1.9-3.4,3.3-6.6,3.3c-5.2,0-9.4-4.3-9.4-11
			C148.7,436.8,152.8,432.6,158,432.6z M159.9,438.3c-2.4,0-4.7,1.8-4.7,5.2c0,3.4,2.2,5.3,4.7,5.3c2.5,0,4.7-1.9,4.7-5.2
			C164.6,440.2,162.4,438.3,159.9,438.3z"/>
		<path class="st12" d="M183.9,432.6c2.8,0,5.2,1.3,6.6,3.2V426h6.5v28.2h-6.5v-3c-1.2,2-3.4,3.4-6.6,3.4c-5.2,0-9.4-4.3-9.4-11
			C174.5,436.8,178.7,432.6,183.9,432.6z M185.8,438.3c-2.4,0-4.7,1.8-4.7,5.2c0,3.4,2.2,5.3,4.7,5.3s4.7-1.9,4.7-5.2
			C190.5,440.2,188.3,438.3,185.8,438.3z"/>
		<path class="st12" d="M211.2,454.6c-6.2,0-10.8-4.2-10.8-10.9c0-6.7,4.5-10.9,10.8-10.9c6.2,0,10.6,4.1,10.6,10.6
			c0,0.6,0,1.2-0.1,1.9h-14.8c0.2,2.8,2,4.1,4.1,4.1c1.8,0,2.9-0.9,3.4-2h7C220.2,451.4,216.5,454.6,211.2,454.6z M206.9,441.5h8.1
			c0-2.3-1.8-3.7-4-3.7C209,437.9,207.3,439.2,206.9,441.5z"/>
		<path class="st12" d="M254.5,442.7c0-2.8-1.6-4.3-4.1-4.3c-2.5,0-4.1,1.6-4.1,4.3v11.6h-6.5v-11.6c0-2.8-1.6-4.3-4.1-4.3
			c-2.5,0-4.1,1.6-4.1,4.3v11.6h-6.5V433h6.5v2.7c1.2-1.7,3.4-2.9,6.2-2.9c3.2,0,5.8,1.4,7.3,4c1.4-2.3,4.1-4,7.2-4
			c5.2,0,8.7,3.4,8.7,9.1v12.4h-6.5v-11.6L254.5,442.7L254.5,442.7z"/>
		<path class="st12" d="M280.3,432.9h7L274,464.3h-7l4.8-10.9l-8.7-20.5h7.3l4.9,13.3L280.3,432.9z"/>
	</g>
</g>
</svg>
