<?xml version="1.0" encoding="utf-8"?>
<!-- Generator: Adobe Illustrator 24.1.3, SVG Export Plug-In . SVG Version: 6.00 Build 0)  -->
<svg version="1.1" id="Layer_1" xmlns="http://www.w3.org/2000/svg" xmlns:xlink="http://www.w3.org/1999/xlink" x="0px" y="0px"
	 viewBox="0 0 187.66 99.96" style="enable-background:new 0 0 187.66 99.96;" xml:space="preserve">
<style type="text/css">
	.st0{fill:url(#SVGID_1_);}
	.st1{fill:url(#SVGID_2_);}
	.st2{fill:url(#SVGID_3_);}
	.st3{fill:url(#SVGID_4_);}
	.st4{fill:url(#SVGID_5_);}
	.st5{fill:url(#SVGID_6_);}
	.st6{fill:url(#SVGID_7_);}
	.st7{opacity:0.3;fill:#020203;enable-background:new    ;}
	.st8{fill:url(#SVGID_8_);}
	.st9{fill:url(#SVGID_9_);}
	.st10{fill:url(#SVGID_10_);}
	.st11{fill:url(#SVGID_11_);}
	.st12{fill:#FFFFFF;}
	.st13{fill:url(#SVGID_12_);}
	.st14{fill:url(#SVGID_13_);}
	.st15{fill:url(#SVGID_14_);}
	.st16{fill:url(#SVGID_15_);}
	.st17{fill:url(#SVGID_16_);}
	.st18{fill:url(#SVGID_17_);}
	.st19{fill:url(#SVGID_18_);}
	.st20{fill:url(#SVGID_19_);}
	.st21{fill:url(#SVGID_20_);}
	.st22{fill:url(#SVGID_21_);}
	.st23{fill:url(#SVGID_22_);}
	.st24{fill:#0F0F0F;}
</style>
<g>
	<g>
		<g>
			
				<radialGradient id="SVGID_1_" cx="44.3272" cy="-129.5984" r="31.24" gradientTransform="matrix(1 0 0 -1 0 -72.3181)" gradientUnits="userSpaceOnUse">
				<stop  offset="0" style="stop-color:#FFFFFF"/>
				<stop  offset="0.28" style="stop-color:#DFDF39"/>
				<stop  offset="0.8" style="stop-color:#3A9948"/>
			</radialGradient>
			<path class="st0" d="M31.41,80.09c-2.18,0.89-4.12,1.59-5.76,2.09c-0.4-0.7-1.09-1.14-1.89-1.14c-1.19,0-2.18,0.99-2.18,2.18
				c0,1.19,0.99,2.18,2.18,2.18c1.14,0,2.04-0.84,2.18-1.99c2.09-0.45,4.57-1.19,7.45-2.18c3.92-1.34,8.59-3.13,13.75-5.36
				c-4.32,2.53-8.19,4.67-11.62,6.4c2.78,1.14,5.86,1.79,9.09,1.79c12.26,0,22.29-9.28,23.58-21.2c-0.74-0.05-1.44-0.25-2.04-0.55
				C51.87,70.61,39.85,76.71,31.41,80.09z M23.72,84.16c-0.55,0-0.99-0.45-0.99-0.99s0.45-0.99,0.99-0.99s0.99,0.45,0.99,0.99
				S24.27,84.16,23.72,84.16z"/>
			
				<linearGradient id="SVGID_2_" gradientUnits="userSpaceOnUse" x1="62.4979" y1="-159.5882" x2="51.4902" y2="-143.5552" gradientTransform="matrix(1 0 0 -1 0 -72.3181)">
				<stop  offset="0" style="stop-color:#FFFFFF"/>
				<stop  offset="1" style="stop-color:#FFFFFF;stop-opacity:0"/>
			</linearGradient>
			<path class="st1" d="M39.41,81.78c1.69,0.4,3.38,0.6,5.16,0.6c10.72,0,19.66-7.65,21.65-17.82
				C62.3,75.32,48.89,82.62,39.41,81.78z"/>
		</g>
		<g>
			
				<radialGradient id="SVGID_3_" cx="72.962" cy="-104.2334" r="17.0166" gradientTransform="matrix(1 0 0 -1 0 -72.3181)" gradientUnits="userSpaceOnUse">
				<stop  offset="0" style="stop-color:#FFFFFF"/>
				<stop  offset="0.5" style="stop-color:#F9AF3C"/>
				<stop  offset="1" style="stop-color:#C4292F"/>
			</radialGradient>
			<path class="st2" d="M64.98,38.09c-0.6,1.29-1.89,3.03-3.97,5.21c1.04,0.99,1.99,2.09,2.83,3.28
				C70.54,39.68,70.59,36.85,64.98,38.09z"/>
			
				<radialGradient id="SVGID_4_" cx="10.2678" cy="-153.5276" r="18.7409" gradientTransform="matrix(1 0 0 -1 0 -72.3181)" gradientUnits="userSpaceOnUse">
				<stop  offset="0" style="stop-color:#FFFFFF"/>
				<stop  offset="0.5" style="stop-color:#F9AF3C"/>
				<stop  offset="1" style="stop-color:#C4292F"/>
			</radialGradient>
			<path class="st3" d="M21.83,77.06c0.55-0.89,1.54-2.04,3.03-3.48c-0.7-1.04-1.34-2.18-1.84-3.33
				C16.47,76.22,16.82,78.15,21.83,77.06z"/>
			
				<radialGradient id="SVGID_5_" cx="46.3206" cy="-87.0045" r="83.9608" gradientTransform="matrix(1 0 0 -1 0 -72.3181)" gradientUnits="userSpaceOnUse">
				<stop  offset="0" style="stop-color:#FFFFFF"/>
				<stop  offset="0.5" style="stop-color:#F9AF3C"/>
				<stop  offset="1" style="stop-color:#C4292F"/>
			</radialGradient>
			<path class="st4" d="M64.28,47.22c1.34,2.04,2.38,4.27,3.08,6.65c-2.04,0.45-3.62,2.23-3.62,4.37
				c-15.19,8.89-27.9,15.24-36.34,18.47c-1.99-2.09-3.62-4.52-4.72-7.2c-1.24-2.98-1.84-6.16-1.84-9.43
				c2.73,0.4,5.11-1.69,5.16-4.42c12.66-7.4,22.94-12.71,30.43-15.84C59.56,41.66,62.25,44.19,64.28,47.22z M21.49,53.58
				c-1.14,0-2.04,0.89-2.04,2.04c0,1.14,0.89,2.04,2.04,2.04c1.14,0,2.04-0.89,2.04-2.04C23.47,54.52,22.58,53.58,21.49,53.58z
				 M68.2,56.31c-1.14,0-2.04,0.89-2.04,2.04c0,1.14,0.89,2.04,2.04,2.04c1.14,0,2.04-0.89,2.04-2.04
				C70.24,57.2,69.34,56.31,68.2,56.31z"/>
			
				<linearGradient id="SVGID_6_" gradientUnits="userSpaceOnUse" x1="91.2279" y1="-130.6864" x2="52.46" y2="-130.6864" gradientTransform="matrix(1 0 0 -1 0 -72.3181)">
				<stop  offset="0" style="stop-color:#FFFFFF"/>
				<stop  offset="1" style="stop-color:#FFFFFF;stop-opacity:0"/>
			</linearGradient>
			<path class="st5" d="M54.5,40.67c-7.3,3.18-16.93,8.19-28.5,14.99c-0.05,2.18-1.54,3.92-3.48,4.37
				c-0.1,6.06,2.28,11.77,6.6,16.04c8.44-3.38,20.45-9.48,34.65-17.77c0-1.59,0.84-2.98,2.09-3.77
				C64.13,48.46,60.01,43.45,54.5,40.67z"/>
			
				<linearGradient id="SVGID_7_" gradientUnits="userSpaceOnUse" x1="-1.617" y1="-130.6864" x2="35.7807" y2="-130.6864" gradientTransform="matrix(1 0 0 -1 0 -72.3181)">
				<stop  offset="0" style="stop-color:#FFFFFF"/>
				<stop  offset="1" style="stop-color:#FFFFFF;stop-opacity:0"/>
			</linearGradient>
			<path class="st6" d="M54.5,40.67c-7.3,3.18-16.93,8.19-28.5,14.99c-0.05,2.18-1.54,3.92-3.48,4.37
				c-0.1,6.06,2.28,11.77,6.6,16.04c8.44-3.38,20.45-9.48,34.65-17.77c0-1.59,0.84-2.98,2.09-3.77
				C64.13,48.46,60.01,43.45,54.5,40.67z"/>
			<path class="st7" d="M61.85,56.71C46.85,65.59,34,69.56,22.97,70.26c0.89,1.99,2.04,3.82,3.48,5.41
				c8.04-2.93,21.2-9.43,36.39-18.37c0.2-2.23,2.04-4.02,4.32-4.17c-0.05-0.15-0.1-0.3-0.15-0.5
				C64.48,52.34,62.15,54.17,61.85,56.71z"/>
			<path class="st7" d="M57.58,40.57c-7.2,2.98-17.72,8.44-30.98,16.23c-0.2,2.33-2.13,4.12-4.52,4.12c-0.45,0-0.84-0.1-1.24-0.15
				c0,0.1,0,0.25,0,0.35c0.55,0.25,1.14,0.4,1.84,0.4c2.28,0,4.17-1.69,4.47-3.87c13.21-7.35,28.1-13.36,36.69-11.02
				C62.15,44.19,60.06,42.16,57.58,40.57z"/>
			
				<radialGradient id="SVGID_8_" cx="46.394" cy="-122.4656" r="20.3408" gradientTransform="matrix(1 0 0 -1 0 -72.3181)" gradientUnits="userSpaceOnUse">
				<stop  offset="0" style="stop-color:#FFFFFF"/>
				<stop  offset="0.5" style="stop-color:#F9AF3C"/>
				<stop  offset="1" style="stop-color:#C4292F"/>
			</radialGradient>
			<path class="st8" d="M26,55.61c-0.05,2.48-2.04,4.52-4.52,4.52c-1.24,0-2.38-0.5-3.23-1.34c0.79,1.24,2.23,2.09,3.82,2.09
				c2.38,0,4.32-1.84,4.52-4.12c35.89-21,51.43-24.82,37.24-10.18c0.15,0.2,0.3,0.45,0.45,0.6C80.42,30.39,63.54,33.67,26,55.61z"/>
			
				<radialGradient id="SVGID_9_" cx="42.2943" cy="-136.7176" r="21.249" gradientTransform="matrix(1 0 0 -1 0 -72.3181)" gradientUnits="userSpaceOnUse">
				<stop  offset="0" style="stop-color:#FFFFFF"/>
				<stop  offset="0.5" style="stop-color:#F9AF3C"/>
				<stop  offset="1" style="stop-color:#C4292F"/>
			</radialGradient>
			<path class="st9" d="M62.84,57.35C30.62,76.22,7.63,84.36,23.02,70.26c-0.1-0.25-0.25-0.5-0.3-0.74
				C4.36,86.44,26.8,79.94,63.78,58.29c0.05-2.48,2.04-4.52,4.52-4.52c0.79,0,1.49,0.2,2.13,0.55c-0.79-0.7-1.84-1.14-3.03-1.14
				C64.98,53.18,63.04,55.02,62.84,57.35z"/>
		</g>
		<g>
			
				<radialGradient id="SVGID_10_" cx="45.284" cy="-37.2321" r="125.6278" gradientTransform="matrix(1 0 0 -1 0 -72.3181)" gradientUnits="userSpaceOnUse">
				<stop  offset="0" style="stop-color:#FFFFFF"/>
				<stop  offset="0.5" style="stop-color:#29B2E7"/>
				<stop  offset="1" style="stop-color:#3E4395"/>
			</radialGradient>
			<path class="st10" d="M63.09,30.14c-1.09,0-1.99,0.79-2.18,1.84c-2.38,0.45-5.61,1.39-9.68,2.98c-2.04,0.79-4.22,1.69-6.65,2.78
				c2.38-1.49,4.67-2.73,6.65-3.87V15.25c2.13-0.89,3.48-2.23,3.48-3.67c0-2.68-4.57-4.87-10.18-4.87S34.34,8.9,34.34,11.63
				c0,1.49,1.34,2.78,3.48,3.67c1.49,0.6,3.38,1.04,5.46,1.14c-1.84,0.4-3.62,0.35-5.46-0.1v21.25c-6.85,2.04-12.46,7.1-15.19,13.65
				c0.35,0.1,0.7,0.25,0.99,0.4c11.12-6.5,20.4-11.42,27.55-14.6c3.97-1.79,7.3-3.03,9.88-3.77c0.35,0.7,1.09,1.19,1.94,1.19
				c1.19,0,2.18-0.99,2.18-2.18C65.22,31.14,64.28,30.14,63.09,30.14z M38.37,10.33c0-1.49,2.73-2.68,6.16-2.68
				c3.43,0,6.16,1.19,6.16,2.68s-2.73,2.68-6.16,2.68C41.1,13.02,38.37,11.82,38.37,10.33z M63.09,33.27
				c-0.55,0-0.99-0.45-0.99-0.99s0.45-0.99,0.99-0.99s0.99,0.45,0.99,0.99S63.59,33.27,63.09,33.27z"/>
			
				<linearGradient id="SVGID_11_" gradientUnits="userSpaceOnUse" x1="30.9082" y1="-108.6816" x2="35.6941" y2="-116.3391" gradientTransform="matrix(1 0 0 -1 0 -72.3181)">
				<stop  offset="0" style="stop-color:#FFFFFF"/>
				<stop  offset="1" style="stop-color:#FFFFFF;stop-opacity:0"/>
			</linearGradient>
			<path class="st11" d="M24.46,51.14c9.14-5.36,17.03-9.53,23.48-12.61c-1.14-0.2-2.28-0.25-3.48-0.25
				C35.63,38.29,27.99,43.6,24.46,51.14z"/>
		</g>
	</g>
	<g>
		<g>
			<path class="st24" d="M82.9,58.1c-3.13,0-5.01-2.04-4.42-5.46c0.6-3.38,3.18-5.41,6.35-5.41c3.13,0,5.01,2.04,4.42,5.31
				c-0.05,0.25-0.1,0.6-0.25,0.84h-7c-0.1,1.24,0.45,1.74,1.29,1.74c0.74,0,1.19-0.4,1.49-0.79h3.97
				C87.86,56.46,85.58,58.1,82.9,58.1z M82.3,51.74h3.28c0.2-1.04-0.45-1.59-1.34-1.59C83.35,50.15,82.65,50.65,82.3,51.74z"/>
			<path class="st24" d="M95.31,58.1c-3.18,0-5.41-1.39-5.06-4.27h3.92c-0.1,0.84,0.35,1.34,1.24,1.34c0.7,0,1.19-0.3,1.19-0.94
				c0-1.89-5.56-1.54-5.56-5.41c0-2.83,2.23-4.42,5.41-4.42c3.03,0,5.11,1.54,4.82,4.17H97.3c0.1-0.79-0.25-1.24-1.04-1.24
				c-0.65,0-1.14,0.35-1.14,0.99c0,1.84,5.56,1.74,5.56,5.61C100.67,56.31,98.64,58.1,95.31,58.1z"/>
			<path class="st24" d="M108.47,47.22c2.68,0,4.37,1.54,4.47,4.17h-3.97c-0.1-0.65-0.45-1.04-1.14-1.04
				c-0.89,0-1.64,0.79-1.89,2.28c-0.25,1.54,0.25,2.28,1.14,2.28c0.74,0,1.19-0.4,1.49-1.04h3.97c-0.99,2.63-3.23,4.17-5.96,4.17
				c-3.13,0-5.01-2.04-4.42-5.46C102.71,49.26,105.29,47.22,108.47,47.22z"/>
			<path class="st24" d="M115.17,47.32h3.72l-1.84,10.62h-3.77L115.17,47.32z M115.37,44.44c0.2-1.09,1.14-1.94,2.48-1.94
				c1.34,0,2.04,0.84,1.84,1.94c-0.2,1.04-1.19,1.89-2.48,1.89C115.86,46.38,115.17,45.53,115.37,44.44z"/>
			<path class="st24" d="M123.86,58.1c-3.13,0-5.01-2.04-4.42-5.46c0.6-3.38,3.18-5.41,6.35-5.41c3.13,0,5.01,2.04,4.42,5.31
				c-0.05,0.25-0.1,0.6-0.25,0.84h-7c-0.1,1.24,0.45,1.74,1.29,1.74c0.74,0,1.19-0.4,1.49-0.79h3.97
				C128.82,56.46,126.54,58.1,123.86,58.1z M123.26,51.74h3.28c0.2-1.04-0.45-1.59-1.34-1.59C124.3,50.15,123.61,50.65,123.26,51.74
				z"/>
			<path class="st24" d="M139,52.24c0.25-1.24-0.35-1.94-1.44-1.94s-1.84,0.74-2.09,1.84l-0.99,5.76h-3.72l1.89-10.62h3.72
				l-0.25,1.49c0.79-0.89,2.04-1.59,3.52-1.59c2.43,0,3.67,1.74,3.18,4.52l-1.09,6.21h-3.72L139,52.24z"/>
			<path class="st24" d="M150.42,47.22c2.68,0,4.37,1.54,4.47,4.17h-3.97c-0.1-0.65-0.45-1.04-1.14-1.04
				c-0.89,0-1.64,0.79-1.89,2.28c-0.25,1.54,0.25,2.28,1.14,2.28c0.74,0,1.19-0.4,1.49-1.04h3.97c-0.99,2.63-3.23,4.17-5.96,4.17
				c-3.13,0-5.01-2.04-4.42-5.46C144.66,49.26,147.29,47.22,150.42,47.22z"/>
			<path class="st24" d="M160,58.1c-3.13,0-5.01-2.04-4.42-5.46c0.6-3.38,3.18-5.41,6.35-5.41c3.13,0,5.01,2.04,4.42,5.31
				c-0.05,0.25-0.1,0.6-0.25,0.84h-7c-0.1,1.24,0.45,1.74,1.29,1.74c0.74,0,1.19-0.4,1.49-0.79h3.97
				C164.97,56.46,162.68,58.1,160,58.1z M159.4,51.74h3.28c0.2-1.04-0.45-1.59-1.34-1.59C160.45,50.15,159.7,50.65,159.4,51.74z"/>
		</g>
	</g>
	<g>
		<g>
			<path class="st24" d="M87.66,72.19H82.7l-0.79,2.38h-3.38l4.82-13.31h3.77l4.82,13.31h-3.48L87.66,72.19z M85.23,64.85
				l-1.64,4.87h3.28L85.23,64.85z"/>
			<path class="st24" d="M97.99,63.8c2.63,0,4.52,1.49,5.06,3.97h-3.48c-0.25-0.74-0.79-1.19-1.69-1.19c-1.14,0-1.94,0.89-1.94,2.68
				c0,1.74,0.79,2.68,1.94,2.68c0.89,0,1.39-0.45,1.69-1.19h3.48c-0.55,2.43-2.38,3.97-5.06,3.97c-3.08,0-5.31-2.09-5.31-5.41
				C92.68,65.94,94.91,63.8,97.99,63.8z"/>
			<path class="st24" d="M108.81,63.8c1.59,0,2.68,0.74,3.28,1.64v-1.49h3.23v10.53h-3.23v-1.44c-0.6,0.94-1.69,1.64-3.28,1.64
				c-2.58,0-4.67-2.13-4.67-5.46C104.2,65.89,106.23,63.8,108.81,63.8z M109.76,66.63c-1.19,0-2.33,0.89-2.33,2.58
				c0,1.69,1.09,2.63,2.33,2.63c1.24,0,2.33-0.94,2.33-2.58C112.09,67.58,111,66.63,109.76,66.63z"/>
			<path class="st24" d="M121.67,63.8c1.39,0,2.58,0.65,3.28,1.59v-4.87h3.23v14h-3.23v-1.49c-0.6,0.99-1.69,1.69-3.28,1.69
				c-2.58,0-4.67-2.13-4.67-5.46C117.01,65.89,119.09,63.8,121.67,63.8z M122.62,66.63c-1.19,0-2.33,0.89-2.33,2.58
				c0,1.69,1.09,2.63,2.33,2.63c1.24,0,2.33-0.94,2.33-2.58C124.95,67.58,123.86,66.63,122.62,66.63z"/>
			<path class="st24" d="M135.23,74.73c-3.08,0-5.36-2.09-5.36-5.41c0-3.33,2.23-5.41,5.36-5.41c3.08,0,5.26,2.04,5.26,5.26
				c0,0.3,0,0.6-0.05,0.94h-7.35c0.1,1.39,0.99,2.04,2.04,2.04c0.89,0,1.44-0.45,1.69-0.99h3.48
				C139.69,73.14,137.86,74.73,135.23,74.73z M133.09,68.22h4.02c0-1.14-0.89-1.84-1.99-1.84
				C134.13,66.44,133.29,67.08,133.09,68.22z"/>
			<path class="st24" d="M156.72,68.82c0-1.39-0.79-2.13-2.04-2.13c-1.24,0-2.04,0.79-2.04,2.13v5.76h-3.23v-5.76
				c0-1.39-0.79-2.13-2.04-2.13c-1.24,0-2.04,0.79-2.04,2.13v5.76h-3.23V64h3.23v1.34c0.6-0.84,1.69-1.44,3.08-1.44
				c1.59,0,2.88,0.7,3.62,1.99c0.7-1.14,2.04-1.99,3.57-1.99c2.58,0,4.32,1.69,4.32,4.52v6.16h-3.23L156.72,68.82L156.72,68.82
				L156.72,68.82z"/>
			<path class="st24" d="M169.53,63.95h3.48l-6.6,15.59h-3.48l2.38-5.41l-4.32-10.18h3.62l2.43,6.6L169.53,63.95z"/>
		</g>
	</g>
</g>
</svg>
